# xmcd
#
# Track frame offsets:
# 150
# 16057
# 29737
# 39667
# 53078
# 66043
# 81507
# 97718
# 109364
# 120467
# 134172
# 145522
# 156684
# 169519
# 180928
# 194284
# 206620
# 217541
#
# Disc length: 3089 seconds
#
#
# Revision: 0
# Processed by: cddbd v1.5.2PL0 Copyright (c) Steve Scherf et al.
# Submitted via: FreeRIP 2.30 
#
DISCID=f50c0f12
DTITLE=Γιάννης Πουλόπουλος - Τα Τραγούδια μου CD 2
DYEAR=1998
DGENRE=Ελαφρά Λαϊκά
TTITLE0=Θα πιώ απόψε το φεγγάρι
TTITLE1=Μη μου θυμώνεις μάτια μου
TTITLE2=Γέλαγε η Μαρία
TTITLE3=Γύφτισσα μέρα
TTITLE4=Με μιά βροχή
TTITLE5=Αδειο σπίτι
TTITLE6=Μάνα, Γυναίκα, Παναγιά
TTITLE7=Η άμαξα μεσ' τη βροχή
TTITLE8=Δε σου γύρεψα μαχαίρι
TTITLE9=Ηρθαν τόσα βάσανα
TTITLE10=Της παράγγειλα να ράψει
TTITLE11=Ρώτησέ με Μαργαρίτα
TTITLE12=Της Μπαρμπαριάς τα κύματα
TTITLE13=Στη Γειτονιά
TTITLE14=Μέσα στα παλιά βαγόνια
TTITLE15=Οταν μιλάς για χωρισμό
TTITLE16=Καράβια αλήτες
TTITLE17=Χωρίς φιλί κι αντίο
EXTD=YEAR: 1998
EXTT0=
EXTT1=
EXTT2=
EXTT3=
EXTT4=
EXTT5=
EXTT6=
EXTT7=
EXTT8=
EXTT9=
EXTT10=
EXTT11=
EXTT12=
EXTT13=
EXTT14=
EXTT15=
EXTT16=
EXTT17=
PLAYORDER=
